<?xml version="1.0" standalone="yes"?>
<svg xmlns="http://www.w3.org/2000/svg" width="316" height="197">
<path style="fill:#b36b25; stroke:none;" d="M0 0C0 21.0747 2.16385 37.3064 10 57L2 59L2 60L79 64L79 63L68 62L69 60L67 60C69.503 46.3745 57.6079 26.0266 51.7423 14C49.7488 9.9127 47.378 2.4866 42.8704 0.603394C31.9902 -3.94212 11.8144 0 0 0z"/>
<path style="fill:#f09031; stroke:none;" d="M44 0C52.1797 16.6873 69.0233 40.6818 67 60L68 62L79 63L79 64L61 64L61 65C66.0908 65 76.4858 67.0216 80 63C95.3829 67.5452 117.601 58 134 58L134 57L126 57L126 56L132 56L111 0L44 0z"/>
<path style="fill:#b36b25; stroke:none;" d="M110 1L132 56L126 56L126 57L180 62L180 61L174 61C177.116 55.2252 170.218 44.0344 168.424 38C165.653 28.6809 159.209 7.16351 151.201 1.3179C148.261 -0.827911 143.419 0 140 0C130.511 0 119.123 -1.69649 110 1z"/>
<path style="fill:#f09031; stroke:none;" d="M151 0L169.671 43L174 60L174 61L180 61L180 62L176 62L176 63C182.213 62.9993 195.721 63.9726 200 59L233 56L210 0L151 0z"/>
<path style="fill:#b36b25; stroke:none;" d="M210 0C212.512 19.2041 231.054 34.8974 232 55L275 61C267.789 56.3203 267.169 49.6753 264.113 42.1698C260.345 32.9195 255.721 23.9272 251.247 15C249.101 10.7178 246.647 3.72504 242.471 1.02779C235.695 -3.34947 218.007 0 210 0z"/>
<path style="fill:#f09031; stroke:none;" d="M243 0C248.161 14.0958 257.123 27.5092 263.351 41.2855C265.694 46.4681 266.199 54.4367 270.499 58.436C275.202 62.8093 291.976 61.6762 296 57L316 55L316 19C310.277 15.7543 305.823 6.19913 304 0L243 0z"/>
<path style="fill:#b36b25; stroke:none;" d="M304 0C305.089 6.03517 309.903 16.9187 316 19L316 0L304 0z"/>
<path style="fill:#f09031; stroke:none;" d="M0 28L0 60L10 57L0 28z"/>
<path style="fill:#d5d5d6; stroke:none;" d="M256 60L256 61L261 62L261 80L254 80L247 58C224.373 54.9531 205.393 60.6978 183 62.8302C175.262 63.5671 167.705 62.0213 160 62L160 63L163 65L160 64C160 67.8924 146.199 65.9304 152 61C126.865 52.4914 101.198 63.185 76 64.9105C50.7929 66.6366 25.2807 60 0 60L0 136L76 138.921L124 135.015L189 137L238 133.039L284 135.961L316 134L316 55C295.395 56.6284 276.974 62.6507 256 60z"/>
<path style="fill:#b36b25; stroke:none;" d="M216 56L217 57L216 56z"/>
<path style="fill:#f09031; stroke:none;" d="M239 56L239 57L242 57L239 56M243 57L243 58L251 59L243 57z"/>
<path style="fill:#b36b25; stroke:none;" d="M296 57L297 58L296 57z"/>
<path style="fill:#f09031; stroke:none;" d="M139 58L139 59L142 59L139 58z"/>
<path style="fill:#6d9d68; stroke:none;" d="M247 58L254 80L261 80L261 62L247 58z"/>
<path style="fill:#f09031; stroke:none;" d="M146 59L146 60L149 60L146 59z"/>
<path style="fill:#b36b25; stroke:none;" d="M200 59L201 60L200 59z"/>
<path style="fill:#f09031; stroke:none;" d="M252 59L252 60L256 60L252 59M18 60L18 61L23 61L18 60z"/>
<path style="fill:#6d9d68; stroke:none;" d="M151 60L149 62C150.737 64.8526 159.192 68.8454 160 64L163 65L151 60z"/>
<path style="fill:#f09031; stroke:none;" d="M152 60L152 61L155 61L152 60M259 60L259 61L264 61L259 60M29 61L29 62L33 62L29 61M156 61L156 62L162 62L156 61z"/>
<path style="fill:#b36b25; stroke:none;" d="M184 61L185 62L184 61z"/>
<path style="fill:#f09031; stroke:none;" d="M37 62L37 63L42 63L37 62M168 62L168 63L173 63L168 62M47 63L47 64L52 64L47 63z"/>
<path style="fill:#b36b25; stroke:none;" d="M80 63L81 64L80 63z"/>
<path style="fill:#6d9d68; stroke:none;" d="M147 64L148 65L147 64z"/>
<path style="fill:#d5d5d6; stroke:none;" d="M155 64L156 65L155 64z"/>
<path style="fill:#6d9d68; stroke:none;" d="M144 65L145 66L144 65M164 65L161 66L161 67L165 66L164 65M145.667 67.3333L146.333 67.6667L145.667 67.3333z"/>
<path style="fill:#106a0b; stroke:none;" d="M147 67.4676C128.102 71.0317 120.23 93.9142 128.674 110C135.422 122.857 152.022 129.848 166 126.88C182.702 123.334 191.242 104.429 185.07 89C179.392 74.8054 162.307 64.5807 147 67.4676z"/>
<path style="fill:#6d9d68; stroke:none;" d="M157 67L157 68L160 68L157 67M165 67L166 68L165 67M142 68L143 69L142 68M161.667 68.3333L162.333 68.6667L161.667 68.3333M140 69L141 70L140 69M164 69L165 70L164 69M138 70L139 71L138 70M167 70L168 71L167 70M147 71L148 72L147 71z"/>
<path style="fill:#d5d5d6; stroke:none;" d="M144 72L151 85L152 85L149 72L154 85L155 85L156 71L155 71L154 73L144 72z"/>
<path style="fill:#6d9d68; stroke:none;" d="M154.333 71.6667L154.667 72.3333L154.333 71.6667M156 71L155 73L155 74L159 78L161 76L164 81L165 80L158 73L163 73L162 75L165 74L156 71M169 71L170 72L169 71M135 72L136 73L135 72M143 72L145 77L143 72M145 72L146 73L145 72M149 72L151 76L152 76L149 72z"/>
<path style="fill:#d5d5d6; stroke:none;" d="M157 72L158 73L157 72z"/>
<path style="fill:#6d9d68; stroke:none;" d="M170 72L171 73L170 72M134 73L135 74L134 73M141 73L137 76L139 80L140 80L138 76L141 73z"/>
<path style="fill:#d5d5d6; stroke:none;" d="M142 73L138 76L141 80L136 77L133 86C130.079 87.9123 130.31 89.6961 131 93C127.855 95.8729 129.845 102.73 133 105C132.478 108.092 132.919 109.14 136 110C136.577 113.474 137.526 114.423 141 115C144.521 125.057 167.788 125.531 173 117C182.231 115.32 187.137 95.2166 179 90C179.51 84.8605 176.055 80.8182 171 80L163 74L165 80L164 81L163 79L162 79L160 88L161 88L168 77L169 77L160 92L174 81L164 92L178 86L167 93L167 94L181 92L181 93L168 96L168 97L182 98L182 99L168 99L168 100L181 104L181 105L168 102L168 103L179 110L179 111L166 104L175 116L162 104L170 120L169 120L162 107L161 107L164 122L163 122L159 108L158 108L158 122L156 122L155 108L149 120L154 103L153 103L144 118L143 118L152 102L139 112L150 100L137 106L137 105L147 100L147 99L133 101L133 100L148 97L148 96L131 95L131 94L146 94L146 93L134 90L134 89L148 92L148 91L137 85L137 84L149 90L141 80L150 87L142 73z"/>
<path style="fill:#6d9d68; stroke:none;" d="M152 73L153 77L154 77L152 73z"/>
<path style="fill:#d5d5d6; stroke:none;" d="M158 73C159.819 75.3898 161.151 75.2963 163 73L158 73z"/>
<path style="fill:#6d9d68; stroke:none;" d="M172 73L173 74L172 73M133 74L134 75L133 74M147 74L148 75L147 74z"/>
<path style="fill:#b36b25; stroke:none;" d="M150 74L151 75L150 74M156 74L157 75L156 74z"/>
<path style="fill:#6d9d68; stroke:none;" d="M173 74L174 75L173 74M132 75L133 76L132 75z"/>
<path style="fill:#106a0b; stroke:none;" d="M150 75L153 88L152 88L146 76L145 76L151 89L141 80L149 90L137 84L137 85L148 91L148 92L135 89L135 90L151 93L151 98L135 100L135 101L150 98L150 99L137 105L137 106L152 99L152 100L140 111L153 100L144 116L145 116L153 102L154 102L150 118L151 118L155 102L156 102L156 119L157 119L157 102L161 107L160 107L159 103L158 103L162 119L163 119L161 107L162 107L167 116L168 116L161 102L162 102L173 114L162 101L177 110L177 109L166 102L166 101L177 104L177 103L164 99L164 98L179 99L179 98C174.915 97.8725 164.691 94.4998 164 100L162 96L178 94L178 93L162 95L162 94L176 88L176 87L162 93L162 92L173 82L160 92L168 79L157 91L157 75L156 75L156 91L152 93L151 93L149 90L152 91L153 88L154 90L155 90L150 75z"/>
<path style="fill:#6d9d68; stroke:none;" d="M155 75L156 76L155 75z"/>
<path style="fill:#d5d5d6; stroke:none;" d="M157 75L158 85L159 85L161 76L160 76L159 78L157 75z"/>
<path style="fill:#b36b25; stroke:none;" d="M162.333 75.6667L162.667 76.3333L162.333 75.6667z"/>
<path style="fill:#6d9d68; stroke:none;" d="M165 75L165 76L169 76L165 75M148 76L149 77L148 76z"/>
<path style="fill:#b36b25; stroke:none;" d="M150 76L151 77L150 76z"/>
<path style="fill:#6d9d68; stroke:none;" d="M169 76L170 77L169 76M146 77L147 78L146 77M150 77L151 78L150 77M157 77L157 88L158 88L157 77z"/>
<path style="fill:#106a0b; stroke:none;" d="M161 77L158 90L159 90L161 77z"/>
<path style="fill:#6d9d68; stroke:none;" d="M164.667 77.3333L165.333 77.6667L164.667 77.3333M168 77L167 79L169 79L168 77M177 77L178 78L177 77M130 78L131 79L130 78M145 78L146 79L145 78M149 78L150 79L149 78M152 78L153 79L152 78M155 78L155 90L154 90L153 88L152 91L149 90L151 93L152 93L156 91L155 78M171 78L174 80L174 79L171 78M178 78L179 79L178 78z"/>
<path style="fill:#106a0b; stroke:none;" d="M140 79L141 80L140 79z"/>
<path style="fill:#b36b25; stroke:none;" d="M147 79L148 80L147 79z"/>
<path style="fill:#6d9d68; stroke:none;" d="M160 79L161 80L160 79M133 80L134 81L133 80M148 80L149 81L148 80M151.333 80.6667L151.667 81.3333L151.333 80.6667M167 80L168 81L167 80M128 81L129 82L128 81M141 81L142 82L141 81M143 81L144 82L143 81M153 81L154 82L153 81M161 81L161 84L163 83L163 82L161 81M173.333 81.6667L173.667 82.3333L173.333 81.6667M132 82L133 83L132 82M135.333 82.6667L135.667 83.3333L135.333 82.6667M142 82L143 83L142 82M144 82L145 83L144 82M147 82L148 83L147 82M149 82L150 83L149 82M159 82L160 83L159 82M164 82L165 83L164 82M166 82L167 83L166 82M181 82L182 83L181 82M260 82L260 86L261 86L260 82z"/>
<path style="fill:#106a0b; stroke:none;" d="M136 83L137 84L136 83z"/>
<path style="fill:#6d9d68; stroke:none;" d="M143 83L144 84L143 83M145 83L146 84L145 83M150 83L151 84L150 83M167 83L166 85L167 83M172 83L173 84L172 83M182 83L183 84L182 83M256.333 83.6667L256.667 84.3333L256.333 83.6667M132.333 84.6667L132.667 85.3333L132.333 84.6667M146 84L147 85L146 84M169 84L170 85L169 84M171 84L172 85L171 84M178 84L179 85L178 84M138 85L139 86L138 85M147 85L148 86L147 85M149 85L150 86L149 85M151 85L152 88L153 88L153 85L151 85M162 85L163 86L162 85M168 85L169 86L168 85M170 85L171 86L170 85M183 85L184 86L183 85M126 86L127 87L126 86M130 86L131 87L130 86M142 86L143 87L142 86M148 86L149 87L148 86M160 86L161 87L160 86M169 86L170 87L169 86M176 86L176 88L178 86L176 86M179 86L180 87L179 86M141 87L142 88L141 87M144 87L145 88L144 87M149.667 87.3333L150.333 87.6667L149.667 87.3333M163 87L164 88L163 87M165 87L166 88L165 87M168 87L169 88L168 87M184 87L185 88L184 87M132.667 88.3333L133.333 88.6667L132.667 88.3333z"/>
<path style="fill:#d5d5d6; stroke:none;" d="M150 88L151 89L150 88M157 88L158 89L157 88z"/>
<path style="fill:#6d9d68; stroke:none;" d="M159.667 88.3333L160.333 88.6667L159.667 88.3333M164 88L165 89L164 88M167 88L168 89L167 88M172 88L173 89L172 88M175 88L176 89L175 88M129 89L130 90L129 89M134 89L135 90L134 89M138 89L139 90L138 89M144 89L145 90L144 89z"/>
<path style="fill:#d5d5d6; stroke:none;" d="M151 89L152 90L151 89z"/>
<path style="fill:#6d9d68; stroke:none;" d="M157 89L160 91L160 90L157 89z"/>
<path style="fill:#d5d5d6; stroke:none;" d="M159 89L160 90L159 89z"/>
<path style="fill:#6d9d68; stroke:none;" d="M173 89L174 90L173 89M179 89L180 90L179 89M125.333 90.6667L125.667 91.3333L125.333 90.6667M137 90L138 91L137 90M142 90L143 91L142 90M167 90L168 91L167 90M171 90L172 91L171 90M181 90L182 91L181 90M130.333 91.6667L130.667 92.3333L130.333 91.6667M140 91L141 92L140 91M145 91L146 92L145 91M163.333 91.6667L163.667 92.3333L163.333 91.6667M165 91L166 92L165 91M142 92L143 93L142 92M148.667 92.3333L149.333 92.6667L148.667 92.3333z"/>
<path style="fill:#d5d5d6; stroke:none;" d="M162 92L163 93L162 92z"/>
<path style="fill:#6d9d68; stroke:none;" d="M167 92L168 93L167 92M176 92L176 93L181 93L176 92M182.333 92.6667L182.667 93.3333L182.333 92.6667M146 93L150 95L150 96L148 97L151 98L151 93L146 93M161 93L162 94L161 93M164 93L162 94L162 95L164 93z"/>
<path style="fill:#d5d5d6; stroke:none;" d="M165 93L166 94L165 93z"/>
<path style="fill:#6d9d68; stroke:none;" d="M166 93L167 94L166 93M169 93L169 94L172 94L169 93M186 93L187 94L186 93M131 94L131 95L139 96L131 94z"/>
<path style="fill:#106a0b; stroke:none;" d="M136 94L136 95L150 96L136 94z"/>
<path style="fill:#6d9d68; stroke:none;" d="M174 94L175 95L174 94M168 95L168 96L171 96L168 95M181 95L182 96L181 95M162 96L164 100L168 97L162 96M182 96L183 97L182 96M143 97L144 98L143 97M173.667 97.3333L174.333 97.6667L173.667 97.3333M130 98L131 99L130 98M139 98L140 99L139 98M147.333 98.6667L147.667 99.3333L147.333 98.6667z"/>
<path style="fill:#d5d5d6; stroke:none;" d="M148 98L149 99L148 98z"/>
<path style="fill:#6d9d68; stroke:none;" d="M149 98L150 99L149 98M164.667 98.3333L165.333 98.6667L164.667 98.3333z"/>
<path style="fill:#d5d5d6; stroke:none;" d="M166 98L167 99L166 98z"/>
<path style="fill:#6d9d68; stroke:none;" d="M167.333 98.6667L167.667 99.3333L167.333 98.6667M179 98L179 99L182 99L179 98M136 99L137 100L136 99M142.667 99.3333L143.333 99.6667L142.667 99.3333M150.333 99.6667L150.667 100.333L150.333 99.6667z"/>
<path style="fill:#d5d5d6; stroke:none;" d="M151 99L152 100L151 99z"/>
<path style="fill:#6d9d68; stroke:none;" d="M125.333 100.667L125.667 101.333L125.333 100.667M129 100L130 101L129 100M133 100L134 101L133 100z"/>
<path style="fill:#b36b25; stroke:none;" d="M134 100L135 101L134 100z"/>
<path style="fill:#6d9d68; stroke:none;" d="M137 100L138 101L137 100M145 100L146 101L145 100z"/>
<path style="fill:#d5d5d6; stroke:none;" d="M152 100L153 101L152 100z"/>
<path style="fill:#6d9d68; stroke:none;" d="M161 100L160 102L161 100z"/>
<path style="fill:#d5d5d6; stroke:none;" d="M164 100L165 101L164 100z"/>
<path style="fill:#6d9d68; stroke:none;" d="M165 100L166 101L165 100M170 100L171 101L170 100M131.667 101.333L132.333 101.667L131.667 101.333M143 101L144 102L143 101M147 101L148 102L147 101M151.667 101.333L152.333 101.667L151.667 101.333M154 101L155 102L154 101M162 101L166 105L162 101z"/>
<path style="fill:#d5d5d6; stroke:none;" d="M166 101L167 102L166 101z"/>
<path style="fill:#6d9d68; stroke:none;" d="M167.333 101.667L167.667 102.333L167.333 101.667M172 101L173 102L172 101M141 102L142 103L141 102M145 102L146 103L145 102M150 102L151 103L150 102M153 102L154 103L153 102M155.333 102.667L155.667 103.333L155.333 102.667M157 102L158 108L159 108L160 103L157 102M161 102L161 104L163 104L161 102M170 102L171 103L170 102M175 102L176 103L175 102M143 103L144 104L143 103M149 103L150 104L149 103z"/>
<path style="fill:#d5d5d6; stroke:none;" d="M159 103L160 104L159 103z"/>
<path style="fill:#6d9d68; stroke:none;" d="M173 103L174 104L173 103z"/>
<path style="fill:#b36b25; stroke:none;" d="M174 103L175 104L174 103z"/>
<path style="fill:#6d9d68; stroke:none;" d="M177 103L181 105L181 104L177 103M126.333 104.667L126.667 105.333L126.333 104.667M138 104L139 105L138 104M148 104L149 105L148 104z"/>
<path style="fill:#d5d5d6; stroke:none;" d="M155.333 104.667L155.667 105.333L155.333 104.667z"/>
<path style="fill:#6d9d68; stroke:none;" d="M159.667 104.333L160.333 104.667L159.667 104.333M167 104L168 105L167 104M170 104L171 105L170 104M132 105L133 106L132 105M147 105L148 106L147 105M149 105L150 106L149 105z"/>
<path style="fill:#d5d5d6; stroke:none;" d="M160 105L161 106L160 105z"/>
<path style="fill:#6d9d68; stroke:none;" d="M166 105L167 106L166 105M168 105L169 106L168 105M171 105L172 106L171 105M182.333 105.667L182.667 106.333L182.333 105.667M135 106L134 108L135 106z"/>
<path style="fill:#106a0b; stroke:none;" d="M136 106L137 107L136 106z"/>
<path style="fill:#6d9d68; stroke:none;" d="M146 106L147 107L146 106M155 106L156 109L155 106M160 106L161 107L160 106M163 106L164 107L163 106M170 106L171 107L170 106M186 106L187 107L186 106M127 107L128 108L127 107M148 107L149 108L148 107M150 107L151 108L150 107M152 107L153 108L152 107M165 107L166 108L165 107M174 107L175 108L174 107M181 107L182 108L181 107M132 108L133 109L132 108M162 108L163 109L162 108M164 108L165 109L164 108M173 108L174 109L173 108M149 109L150 110L149 109M172 109L173 110L172 109M175 109L176 110L175 109M177 109L177 111L179 111L177 109M180 109L181 110L180 109M185 109L186 110L185 109M135 110L136 111L135 110M141 110L142 111L141 110M148 110L149 111L148 110M153 110L154 111L153 110M157 110L156 122C159.045 119.339 158.478 113.521 157 110M159 110L160 111L159 110M161.333 110.667L161.667 111.333L161.333 110.667M163 110L164 111L163 110M165 110L166 111L165 110M129 111L130 112L129 111z"/>
<path style="fill:#b36b25; stroke:none;" d="M139 111L140 112L139 111z"/>
<path style="fill:#6d9d68; stroke:none;" d="M140 111L141 112L140 111M151 111L152 112L151 111M171 111L172 112L171 111M180 111L181 112L180 111M135 112L136 113L135 112M138 112L139 113L138 112M145 112L146 113L145 112M166 112L167 113L166 112M172 112L173 113L172 112M146 113L147 114L146 113M152 113L153 114L152 113M160 113L161 114L160 113M165 113L166 114L165 113M173 113L175 116L173 113M177 113L178 114L177 113M131 114L132 115L131 114M144 114L145 115L144 114M162.333 114.667L162.667 115.333L162.333 114.667M167 114L168 115L167 114M132 115L133 116L132 115M138 115L138 116L141 116L138 115M150 115L151 116L150 115M164 115L165 116L164 115M182 115L183 116L182 115M133 116L134 117L133 116M143 116L143 118L145 116L143 116M151 116L152 117L151 116M161 116L162 117L161 116M167.667 116.333L168.333 116.667L167.667 116.333M176 116L177 117L176 116M134 117L135 118L134 117z"/>
<path style="fill:#106a0b; stroke:none;" d="M168 117L169 118L168 117z"/>
<path style="fill:#6d9d68; stroke:none;" d="M173 117L174 118L173 117M175 117L176 118L175 117M181 117L182 118L181 117M135 118L136 119L135 118M142 118L143 119L142 118M150 118L149 120L151 120L150 118M163 118L163 122L164 122L163 118M168 118L170 120L170 118L168 118M180 118L181 119L180 118M136 119L137 120L136 119M144 119L145 120L144 119M179 119L180 120L179 119M137 120L138 121L137 120M147 120L148 121L147 120M171 120L172 121L171 120M178 120L179 121L178 120M139 121L140 122L139 121M148 121L149 122L148 121M152.667 121.333L153.333 121.667L152.667 121.333M168 121L169 122L168 121M177 121L178 122L177 121M140 122L141 123L140 122M154 122L155 123L154 122M159 122L160 123L159 122M161 122L162 123L161 122M165 122L166 123L165 122M176 122L177 123L176 122M142 123L143 124L142 123M157 123L158 124L157 123M174 123L175 124L174 123M144 124L145 125L144 124M173 124L174 125L173 124M146.667 125.333L147.333 125.667L146.667 125.333M170.667 125.333L171.333 125.667L170.667 125.333M150 126L151 127L150 126M168 126L169 127L168 126M153 127L154 128L153 127M155 127L155 128L158 128L155 127M162 127L162 128L165 128L162 127M233 133L233 134L259 134L233 133M222 134L222 135L227 135L222 134z"/>
<path style="fill:#106a0b; stroke:none;" d="M0 137L0 197L316 197L316 134C288.601 140.523 258.87 132.819 231 134.039C216.972 134.654 203.05 137.366 189 137.741C172.719 138.175 156.33 135 140 135C121.526 135 103.401 138.535 85 138.985C56.6681 139.679 28.3823 137 0 137z"/>
<path style="fill:#6d9d68; stroke:none;" d="M264 134L264 135L269 135L264 134M309 134L309 135L315 135L309 134M118 135L118 136L124 136L118 135M154 135L154 136L161 136L154 135M212 135L212 136L216 136L212 135M274 135L274 136L280 136L274 135M296 135L296 136L303 136L296 135M0 136L0 137L24 137L0 136M108 136L108 137L112 137L108 136M168 136L168 137L174 137L168 136M202 136L202 137L207 137L202 136M38 137L38 138L48 138L38 137M98 137L98 138L103 138L98 137M185 137L185 138L192 138L185 137M58 138L58 139L72 139L58 138M80 138L80 139L91 139L80 138z"/>
</svg>
